<?xml version="1.0" standalone="no"?>
<!DOCTYPE svg PUBLIC "-//W3C//DTD SVG 20010904//EN"
 "http://www.w3.org/TR/2001/REC-SVG-20010904/DTD/svg10.dtd">
<svg version="1.0" xmlns="http://www.w3.org/2000/svg"
 width="265.000000pt" height="150.000000pt" viewBox="0 0 265.000000 150.000000"
 preserveAspectRatio="xMidYMid meet">
<metadata>
Created by potrace 1.11, written by Peter Selinger 2001-2013
</metadata>
<g transform="translate(0.000000,150.000000) scale(0.100000,-0.100000)"
fill="#000000" stroke="none">
<path d="M1061 1488 c-25 -4 -49 -12 -54 -17 -6 -6 -22 -4 -43 5 -26 11 -35
11 -41 1 -4 -7 -27 -25 -51 -40 -25 -16 -42 -34 -39 -41 3 -8 -14 -25 -39 -41
-25 -16 -67 -54 -95 -86 -42 -49 -48 -61 -43 -87 8 -41 -2 -78 -27 -103 -15
-15 -18 -24 -10 -32 6 -6 11 -21 11 -34 0 -12 6 -26 13 -30 16 -11 40 -54 33
-60 -3 -3 20 -30 51 -60 48 -46 60 -54 82 -48 14 4 54 8 88 9 34 0 68 7 75 14
22 22 72 14 109 -18 24 -22 40 -29 56 -25 16 4 23 1 23 -9 0 -8 9 -18 21 -21
19 -6 20 -12 14 -62 -6 -52 -5 -57 22 -87 48 -52 73 -151 48 -190 -20 -31 -22
-101 -3 -124 18 -22 38 -68 38 -90 1 -9 9 -31 18 -48 9 -17 27 -49 39 -71 12
-22 19 -43 16 -47 -3 -3 0 -12 7 -21 16 -19 113 -15 156 8 37 19 108 103 99
117 -3 5 -1 10 4 10 6 0 11 7 11 15 0 8 6 15 14 15 27 0 40 28 29 64 -10 32
-8 36 21 58 17 12 43 28 59 35 15 7 27 16 28 20 5 46 3 110 -4 120 -4 6 -9 22
-11 35 -1 13 -5 29 -9 35 -15 23 106 168 149 179 13 4 23 11 22 18 -1 6 9 29
23 51 34 55 49 91 49 120 0 25 -15 41 -24 26 -3 -4 -20 -12 -38 -16 -69 -15
-79 -14 -88 8 -5 12 -28 40 -50 62 -23 22 -46 49 -51 60 -5 11 -13 27 -17 35
-15 25 -48 91 -92 182 -44 90 -59 105 -89 89 -10 -6 -23 -6 -32 0 -7 5 -31 9
-51 9 -21 0 -38 5 -38 10 0 15 -46 12 -59 -3 -6 -8 -8 -17 -5 -20 3 -3 3 -11
-1 -16 -6 -11 -54 10 -83 37 -7 6 -21 12 -30 12 -30 1 -48 24 -47 60 l0 35
-60 1 c-33 0 -80 -3 -104 -8z"/>
</g>
</svg>
